<svg xmlns="http://www.w3.org/2000/svg" xmlns:xlink="http://www.w3.org/1999/xlink" width="500" zoomAndPan="magnify" viewBox="0 0 375 374.999991" height="500" preserveAspectRatio="xMidYMid meet" version="1.0"><path fill="#72e8d2" d="M 310.414062 172.140625 C 284.714844 197.585938 239.964844 210.109375 217.496094 215.054688 C 247.046875 201.460938 280.054688 177.804688 307.351562 136.992188 C 307.351562 136.984375 317.253906 148.207031 310.414062 172.140625 Z M 310.414062 172.140625 " fill-opacity="1" fill-rule="nonzero"/><path fill="#72e8d2" d="M 0 264.878906 C 0 264.878906 28.574219 188.136719 90.476562 179.21875 C 152.390625 170.300781 163.097656 195.871094 232.746094 170.886719 C 232.746094 170.886719 244.648438 208.363281 170.246094 217.878906 C 170.246094 217.878906 162.507812 232.75 185.726562 232.75 C 208.941406 232.75 291.082031 222.382812 348.234375 136.976562 C 348.234375 136.976562 375.015625 167.316406 310.136719 234.53125 C 245.253906 301.746094 163.105469 336.261719 0 264.878906 Z M 0 264.878906 " fill-opacity="1" fill-rule="nonzero"/><path fill="#e24065" d="M 251.175781 50.316406 C 239.367188 38.515625 220.230469 38.515625 208.421875 50.316406 L 192.503906 66.214844 L 176.597656 50.316406 C 164.789062 38.515625 145.644531 38.515625 133.839844 50.316406 C 127.9375 56.21875 124.992188 63.945312 124.992188 71.675781 C 124.992188 79.410156 127.945312 87.144531 133.839844 93.046875 L 192.511719 151.679688 L 192.523438 151.679688 L 251.195312 93.046875 C 262.988281 81.242188 262.988281 62.113281 251.175781 50.316406 Z M 214.125 104.570312 L 200.503906 104.570312 L 200.503906 118.179688 L 184.488281 118.179688 L 184.488281 104.570312 L 170.878906 104.570312 L 170.878906 88.566406 L 184.488281 88.566406 L 184.488281 74.964844 L 200.503906 74.964844 L 200.503906 88.574219 L 214.125 88.574219 Z M 214.125 104.570312 " fill-opacity="1" fill-rule="nonzero"/></svg>